<?xml version="1.0" standalone="no"?>
<svg  xmlns:xlink="http://www.w3.org/1999/xlink" id="wave" style="transform:rotate(0deg); transition: 0.3s" viewBox="0 0 1440 210" version="1.1" xmlns="http://www.w3.org/2000/svg"><defs><linearGradient id="sw-gradient-0" x1="0" x2="0" y1="1" y2="0"><stop stop-color="rgba(255, 255, 255, 1)" offset="0%"/><stop stop-color="rgba(255, 255, 255, 1)" offset="100%"/></linearGradient></defs><path style="transform:translate(0, 0px); opacity:1" fill="url(#sw-gradient-0)" d="M0,21L30,31.5C60,42,120,63,180,87.5C240,112,300,140,360,154C420,168,480,168,540,168C600,168,660,168,720,140C780,112,840,56,900,52.5C960,49,1020,98,1080,126C1140,154,1200,161,1260,168C1320,175,1380,182,1440,182C1500,182,1560,175,1620,171.5C1680,168,1740,168,1800,161C1860,154,1920,140,1980,112C2040,84,2100,42,2160,49C2220,56,2280,112,2340,122.5C2400,133,2460,98,2520,98C2580,98,2640,133,2700,143.5C2760,154,2820,140,2880,126C2940,112,3000,98,3060,101.5C3120,105,3180,126,3240,136.5C3300,147,3360,147,3420,136.5C3480,126,3540,105,3600,94.5C3660,84,3720,84,3780,91C3840,98,3900,112,3960,122.5C4020,133,4080,140,4140,136.5C4200,133,4260,119,4290,112L4320,105L4320,210L4290,210C4260,210,4200,210,4140,210C4080,210,4020,210,3960,210C3900,210,3840,210,3780,210C3720,210,3660,210,3600,210C3540,210,3480,210,3420,210C3360,210,3300,210,3240,210C3180,210,3120,210,3060,210C3000,210,2940,210,2880,210C2820,210,2760,210,2700,210C2640,210,2580,210,2520,210C2460,210,2400,210,2340,210C2280,210,2220,210,2160,210C2100,210,2040,210,1980,210C1920,210,1860,210,1800,210C1740,210,1680,210,1620,210C1560,210,1500,210,1440,210C1380,210,1320,210,1260,210C1200,210,1140,210,1080,210C1020,210,960,210,900,210C840,210,780,210,720,210C660,210,600,210,540,210C480,210,420,210,360,210C300,210,240,210,180,210C120,210,60,210,30,210L0,210Z"/></svg>